<svg xmlns="http://www.w3.org/2000/svg" version="1.1" xmlns:xlink="http://www.w3.org/1999/xlink" xmlns:svgjs="http://svgjs.com/svgjs" width="1000" height="1000"><svg xmlns="http://www.w3.org/2000/svg" xmlns:xlink="http://www.w3.org/1999/xlink" version="1.1" width="1000" height="1000" viewBox="0 0 1000 1000" xml:space="preserve">
<desc>Created with Fabric.js 3.5.0</desc>
<defs>
</defs>
<rect x="0" y="0" width="100%" height="100%" fill="none"></rect>
<g transform="matrix(23.729 0 0 31.1643 470.0174 499.9996)" id="SvgjsG1002">
<g style="" vector-effect="non-scaling-stroke">
		<g transform="matrix(1 0 0 1 0 -11)" id="SvgjsG1001">
<path style="stroke: none; stroke-width: 1; stroke-dasharray: none; stroke-linecap: butt; stroke-dashoffset: 0; stroke-linejoin: miter; stroke-miterlimit: 4; is-custom-font: none; font-file-url: none; fill: rgb(40,40,77); fill-rule: nonzero; opacity: 1;" transform=" translate(-16, -5)" d="M 12.4 8 h 7.2 l 1.6 -3.1 c 0.3 -0.6 0.3 -1.4 -0.1 -1.9 S 20.1 2 19.4 2 h -6.8 c -0.7 0 -1.3 0.4 -1.7 0.9 s -0.4 1.3 -0.1 1.9 L 12.4 8 z" stroke-linecap="round"></path>
</g>
		<g transform="matrix(1 0 0 1 -0.1 3.8)" id="SvgjsG1000">
<path style="stroke: none; stroke-width: 1; stroke-dasharray: none; stroke-linecap: butt; stroke-dashoffset: 0; stroke-linejoin: miter; stroke-miterlimit: 4; is-custom-font: none; font-file-url: none; fill: rgb(40,40,77); fill-rule: nonzero; opacity: 1;" transform=" translate(-15.9, -19.8)" d="M 20.8 18 H 16 c -0.6 0 -1 -0.4 -1 -1 s 0.4 -1 1 -1 h 4.4 l -1.2 -6 h -6.4 l -2.6 12.8 c -0.2 1 0.1 2 0.8 2.7 l 3.5 3.5 c 0.4 0.4 0.9 0.6 1.4 0.6 s 1 -0.2 1.4 -0.6 l 3.5 -3.5 c 0.7 -0.7 1 -1.7 0.8 -2.7 L 20.8 18 z" stroke-linecap="round"></path>
</g>
</g>
</g>
</svg><style>@media (prefers-color-scheme: light) { :root { filter: contrast(1) brightness(0.4); } }
</style></svg>